<mxfile host="app.diagrams.net" agent="Mozilla/5.0 (Windows NT 10.0; Win64; x64) AppleWebKit/537.36 (KHTML, like Gecko) Chrome/130.0.0.0 Safari/537.36" version="24.8.4">
  <diagram name="Page-1" id="GEDWSTjIbp1rZLIV7duN">
    <mxGraphModel grid="0" page="0" gridSize="10" guides="1" tooltips="1" connect="1" arrows="1" fold="1" pageScale="1" pageWidth="827" pageHeight="1169" math="0" shadow="0">
      <root>
        <mxCell id="0" />
        <mxCell id="1" parent="0" />
        <mxCell id="SD-AC9IPjtE59ZL0ZZMC-40" style="edgeStyle=none;curved=0;rounded=0;orthogonalLoop=1;jettySize=auto;html=1;fontSize=12;startSize=8;endSize=8;" edge="1" parent="1">
          <mxGeometry relative="1" as="geometry">
            <mxPoint x="229.5" y="447" as="sourcePoint" />
            <mxPoint x="-121.5" y="447" as="targetPoint" />
          </mxGeometry>
        </mxCell>
        <mxCell id="SD-AC9IPjtE59ZL0ZZMC-7" value="Hệ thống" style="shape=umlLifeline;perimeter=lifelinePerimeter;whiteSpace=wrap;html=1;container=1;dropTarget=0;collapsible=0;recursiveResize=0;outlineConnect=0;portConstraint=eastwest;newEdgeStyle={&quot;curved&quot;:0,&quot;rounded&quot;:0};" vertex="1" parent="1">
          <mxGeometry x="182" y="-23" width="100" height="485" as="geometry" />
        </mxCell>
        <mxCell id="SD-AC9IPjtE59ZL0ZZMC-14" value="" style="html=1;points=[[0,0,0,0,5],[0,1,0,0,-5],[1,0,0,0,5],[1,1,0,0,-5]];perimeter=orthogonalPerimeter;outlineConnect=0;targetShapes=umlLifeline;portConstraint=eastwest;newEdgeStyle={&quot;curved&quot;:0,&quot;rounded&quot;:0};" vertex="1" parent="SD-AC9IPjtE59ZL0ZZMC-7">
          <mxGeometry x="45" y="86" width="10" height="55" as="geometry" />
        </mxCell>
        <mxCell id="SD-AC9IPjtE59ZL0ZZMC-20" value="" style="html=1;points=[[0,0,0,0,5],[0,1,0,0,-5],[1,0,0,0,5],[1,1,0,0,-5]];perimeter=orthogonalPerimeter;outlineConnect=0;targetShapes=umlLifeline;portConstraint=eastwest;newEdgeStyle={&quot;curved&quot;:0,&quot;rounded&quot;:0};" vertex="1" parent="SD-AC9IPjtE59ZL0ZZMC-7">
          <mxGeometry x="45" y="198" width="10" height="55" as="geometry" />
        </mxCell>
        <mxCell id="SD-AC9IPjtE59ZL0ZZMC-8" value="Admin" style="shape=umlLifeline;perimeter=lifelinePerimeter;whiteSpace=wrap;html=1;container=1;dropTarget=0;collapsible=0;recursiveResize=0;outlineConnect=0;portConstraint=eastwest;newEdgeStyle={&quot;curved&quot;:0,&quot;rounded&quot;:0};" vertex="1" parent="1">
          <mxGeometry x="-169" y="-23" width="100" height="491" as="geometry" />
        </mxCell>
        <mxCell id="SD-AC9IPjtE59ZL0ZZMC-17" value="" style="html=1;points=[[0,0,0,0,5],[0,1,0,0,-5],[1,0,0,0,5],[1,1,0,0,-5]];perimeter=orthogonalPerimeter;outlineConnect=0;targetShapes=umlLifeline;portConstraint=eastwest;newEdgeStyle={&quot;curved&quot;:0,&quot;rounded&quot;:0};" vertex="1" parent="SD-AC9IPjtE59ZL0ZZMC-8">
          <mxGeometry x="45" y="141" width="10" height="55" as="geometry" />
        </mxCell>
        <mxCell id="SD-AC9IPjtE59ZL0ZZMC-38" style="edgeStyle=none;curved=0;rounded=0;orthogonalLoop=1;jettySize=auto;html=1;fontSize=12;startSize=8;endSize=8;" edge="1" parent="1">
          <mxGeometry relative="1" as="geometry">
            <mxPoint x="636" y="401" as="sourcePoint" />
            <mxPoint x="232" y="401" as="targetPoint" />
          </mxGeometry>
        </mxCell>
        <mxCell id="SD-AC9IPjtE59ZL0ZZMC-9" value="Cơ sở dữ liệu" style="shape=umlLifeline;perimeter=lifelinePerimeter;whiteSpace=wrap;html=1;container=1;dropTarget=0;collapsible=0;recursiveResize=0;outlineConnect=0;portConstraint=eastwest;newEdgeStyle={&quot;curved&quot;:0,&quot;rounded&quot;:0};" vertex="1" parent="1">
          <mxGeometry x="590" y="-31" width="92" height="491" as="geometry" />
        </mxCell>
        <mxCell id="SD-AC9IPjtE59ZL0ZZMC-37" value="" style="html=1;points=[[0,0,0,0,5],[0,1,0,0,-5],[1,0,0,0,5],[1,1,0,0,-5]];perimeter=orthogonalPerimeter;outlineConnect=0;targetShapes=umlLifeline;portConstraint=eastwest;newEdgeStyle={&quot;curved&quot;:0,&quot;rounded&quot;:0};" vertex="1" parent="SD-AC9IPjtE59ZL0ZZMC-9">
          <mxGeometry x="41" y="371" width="10" height="55" as="geometry" />
        </mxCell>
        <mxCell id="SD-AC9IPjtE59ZL0ZZMC-11" value="&lt;font style=&quot;font-size: 17px;&quot;&gt;Đăng nhập vào hệ thống&lt;/font&gt;" style="text;strokeColor=none;fillColor=none;html=1;align=center;verticalAlign=middle;whiteSpace=wrap;rounded=0;fontSize=17;" vertex="1" parent="1">
          <mxGeometry x="-62" y="33" width="232" height="28" as="geometry" />
        </mxCell>
        <mxCell id="SD-AC9IPjtE59ZL0ZZMC-10" style="edgeStyle=none;curved=0;rounded=0;orthogonalLoop=1;jettySize=auto;html=1;fontSize=12;startSize=8;endSize=8;" edge="1" parent="1" target="SD-AC9IPjtE59ZL0ZZMC-7">
          <mxGeometry relative="1" as="geometry">
            <mxPoint x="-117" y="62" as="sourcePoint" />
            <mxPoint x="129" y="64" as="targetPoint" />
          </mxGeometry>
        </mxCell>
        <mxCell id="SD-AC9IPjtE59ZL0ZZMC-15" style="edgeStyle=none;curved=0;rounded=0;orthogonalLoop=1;jettySize=auto;html=1;fontSize=12;startSize=8;endSize=8;" edge="1" parent="1">
          <mxGeometry relative="1" as="geometry">
            <mxPoint x="229.5" y="116" as="sourcePoint" />
            <mxPoint x="-117" y="116" as="targetPoint" />
          </mxGeometry>
        </mxCell>
        <mxCell id="SD-AC9IPjtE59ZL0ZZMC-16" value="Trả về thông báo thành công" style="text;strokeColor=none;fillColor=none;html=1;align=center;verticalAlign=middle;whiteSpace=wrap;rounded=0;fontSize=17;" vertex="1" parent="1">
          <mxGeometry x="-62" y="90" width="232" height="28" as="geometry" />
        </mxCell>
        <mxCell id="SD-AC9IPjtE59ZL0ZZMC-18" style="edgeStyle=none;curved=0;rounded=0;orthogonalLoop=1;jettySize=auto;html=1;fontSize=12;startSize=8;endSize=8;" edge="1" parent="1">
          <mxGeometry relative="1" as="geometry">
            <mxPoint x="-115" y="176" as="sourcePoint" />
            <mxPoint x="230.5" y="176" as="targetPoint" />
          </mxGeometry>
        </mxCell>
        <mxCell id="SD-AC9IPjtE59ZL0ZZMC-19" value="Yêu cầu phân quyền người dùng" style="text;strokeColor=none;fillColor=none;html=1;align=center;verticalAlign=middle;whiteSpace=wrap;rounded=0;fontSize=17;" vertex="1" parent="1">
          <mxGeometry x="-77" y="151" width="262" height="28" as="geometry" />
        </mxCell>
        <mxCell id="SD-AC9IPjtE59ZL0ZZMC-21" style="edgeStyle=none;curved=0;rounded=0;orthogonalLoop=1;jettySize=auto;html=1;fontSize=12;startSize=8;endSize=8;" edge="1" parent="1">
          <mxGeometry relative="1" as="geometry">
            <mxPoint x="237" y="230" as="sourcePoint" />
            <mxPoint x="639.5" y="230" as="targetPoint" />
          </mxGeometry>
        </mxCell>
        <mxCell id="SD-AC9IPjtE59ZL0ZZMC-22" value="Gửi phân quyền người dùng" style="text;strokeColor=none;fillColor=none;html=1;align=center;verticalAlign=middle;whiteSpace=wrap;rounded=0;fontSize=17;" vertex="1" parent="1">
          <mxGeometry x="314" y="206" width="262" height="28" as="geometry" />
        </mxCell>
        <mxCell id="SD-AC9IPjtE59ZL0ZZMC-30" value="" style="endArrow=classic;html=1;rounded=0;fontSize=12;startSize=8;endSize=8;curved=1;" edge="1" parent="1">
          <mxGeometry width="50" height="50" relative="1" as="geometry">
            <mxPoint x="701" y="337" as="sourcePoint" />
            <mxPoint x="635" y="337" as="targetPoint" />
          </mxGeometry>
        </mxCell>
        <mxCell id="SD-AC9IPjtE59ZL0ZZMC-33" value="" style="endArrow=none;html=1;rounded=0;fontSize=12;startSize=8;endSize=8;curved=1;" edge="1" parent="1">
          <mxGeometry width="50" height="50" relative="1" as="geometry">
            <mxPoint x="700" y="338" as="sourcePoint" />
            <mxPoint x="700" y="285" as="targetPoint" />
          </mxGeometry>
        </mxCell>
        <mxCell id="SD-AC9IPjtE59ZL0ZZMC-34" value="" style="endArrow=none;html=1;rounded=0;fontSize=12;startSize=8;endSize=8;curved=1;" edge="1" parent="1">
          <mxGeometry width="50" height="50" relative="1" as="geometry">
            <mxPoint x="637" y="286.5" as="sourcePoint" />
            <mxPoint x="699" y="286" as="targetPoint" />
          </mxGeometry>
        </mxCell>
        <mxCell id="SD-AC9IPjtE59ZL0ZZMC-36" value="Lưu lại" style="text;strokeColor=none;fillColor=none;html=1;align=center;verticalAlign=middle;whiteSpace=wrap;rounded=0;fontSize=16;" vertex="1" parent="1">
          <mxGeometry x="636" y="257" width="60" height="30" as="geometry" />
        </mxCell>
        <mxCell id="SD-AC9IPjtE59ZL0ZZMC-39" value="Trả về kết quả" style="text;strokeColor=none;fillColor=none;html=1;align=center;verticalAlign=middle;whiteSpace=wrap;rounded=0;fontSize=17;" vertex="1" parent="1">
          <mxGeometry x="314" y="373" width="262" height="28" as="geometry" />
        </mxCell>
        <mxCell id="SD-AC9IPjtE59ZL0ZZMC-41" value="Trả về thông báo" style="text;strokeColor=none;fillColor=none;html=1;align=center;verticalAlign=middle;whiteSpace=wrap;rounded=0;fontSize=17;" vertex="1" parent="1">
          <mxGeometry x="-80" y="421" width="262" height="28" as="geometry" />
        </mxCell>
      </root>
    </mxGraphModel>
  </diagram>
</mxfile>
